<svg width="40" height="38" viewBox="0 0 40 38" fill="none" xmlns="http://www.w3.org/2000/svg">
<path d="M20.9219 0.0186761C20.5437 0.0467089 20.025 0.102774 19.7656 0.140152C19.6125 0.16507 19.4219 0.193102 19.3437 0.202447C19.0656 0.246053 18.4125 0.379988 17.9687 0.485889C17.5344 0.591791 16.7469 0.806709 16.725 0.825397C16.7187 0.831627 16.7656 0.850315 16.8281 0.869004C16.9187 0.893922 16.9906 0.887693 17.1812 0.831627C17.3906 0.775561 17.5062 0.766217 18.0781 0.766217C18.7906 0.766217 19.0219 0.79425 19.6812 0.968676C20.3562 1.14622 20.9281 1.36425 21.5937 1.69441C24.0875 2.94343 25.6687 4.84966 25.5844 6.50982C25.5625 6.9054 25.5 7.16081 25.3437 7.49097C25.1562 7.88966 25.1406 7.95196 25.1406 8.37868C25.1437 8.8272 25.2094 9.09507 25.3969 9.43458L25.5062 9.63392L21.2094 13.9167L16.9125 18.1995L16.825 18.1372C16.5406 17.9379 16.125 17.8257 15.7781 17.86C15.5312 17.8818 15.2156 17.9752 15.0562 18.0718C14.9937 18.1123 14.5062 18.5577 13.9781 19.0623C4.54999 28.0795 0.481238 31.9823 0.371863 32.1193C0.299988 32.2097 0.190613 32.3903 0.128113 32.518C0.0249878 32.7392 0.0187378 32.7672 0.0187378 33.0787C0.0187378 33.3746 0.0281128 33.4275 0.112488 33.6238C0.246863 33.9352 0.409363 34.1595 0.834363 34.6205C1.46561 35.2995 3.56561 37.3583 3.76561 37.4923C4.73749 38.1433 5.72499 38.1651 6.40311 37.5483C6.64061 37.3334 19.9562 23.342 20.0656 23.1924C20.3531 22.8031 20.4062 22.0929 20.1844 21.6164C20.1312 21.5042 20.0625 21.3859 20.0312 21.3516C19.9719 21.2862 19.9937 21.2644 24.2937 16.9785L28.6156 12.6708L28.8062 12.8203C29.5187 13.3934 30.2156 13.5492 31.15 13.3498C31.7719 13.2159 32.0719 13.2439 32.5469 13.4713C32.8469 13.6146 33.1625 13.8606 33.4844 14.2064C33.6937 14.4306 34.5562 15.4865 34.5781 15.5488C34.5875 15.5706 34.4687 15.7139 34.3125 15.8665C33.875 16.2964 33.725 16.6577 33.7594 17.1965C33.8406 18.4798 35.2687 19.3488 36.3844 18.7944C36.5125 18.7321 36.8875 18.3739 38.1344 17.1374C39.5594 15.7202 39.7312 15.5364 39.8281 15.3495C40.1625 14.6829 39.9969 13.8793 39.4094 13.3C38.8406 12.7424 38.0156 12.5992 37.3625 12.9511L37.2094 13.0352L37.0875 12.8951C36.8469 12.6241 36.3875 11.9918 36.2406 11.7302C36.1562 11.5838 36.0031 11.2785 35.9 11.0511C35.5781 10.3316 35.2594 9.71179 35.0687 9.41589C34.6406 8.76802 34.1281 8.13884 33.4531 7.44425C31.675 5.61277 28.7125 2.62261 28.4875 2.4295C26.9156 1.08392 25.2437 0.351955 23.1125 0.0747417C22.7531 0.0280203 21.2906 -0.0093567 20.9219 0.0186761Z" fill="white"/>
</svg>
