<svg width="32" height="31" viewBox="0 0 32 31" fill="none" xmlns="http://www.w3.org/2000/svg">
<path fill-rule="evenodd" clip-rule="evenodd" d="M16 0C7.16 0 0 7.11169 0 15.8921C0 22.9243 4.58 28.8639 10.94 30.9696C11.74 31.1087 12.04 30.6319 12.04 30.2148C12.04 29.8373 12.02 28.5858 12.02 27.2549C8 27.9899 6.96 26.2815 6.64 25.3876C6.46 24.9307 5.68 23.5202 5 23.1428C4.44 22.8448 3.64 22.1098 4.98 22.09C6.24 22.0701 7.14 23.2421 7.44 23.7189C8.88 26.1226 11.18 25.4472 12.1 25.03C12.24 23.997 12.66 23.3017 13.12 22.9044C9.56 22.5071 5.84 21.1364 5.84 15.0577C5.84 13.3295 6.46 11.8992 7.48 10.7867C7.32 10.3894 6.76 8.7605 7.64 6.57534C7.64 6.57534 8.98 6.15817 12.04 8.20427C13.32 7.8467 14.68 7.66792 16.04 7.66792C17.4 7.66792 18.76 7.8467 20.04 8.20427C23.1 6.13831 24.44 6.57534 24.44 6.57534C25.32 8.7605 24.76 10.3894 24.6 10.7867C25.62 11.8992 26.24 13.3096 26.24 15.0577C26.24 21.1563 22.5 22.5071 18.94 22.9044C19.52 23.4011 20.02 24.3546 20.02 25.8445C20.02 27.97 20 29.6784 20 30.2148C20 30.6319 20.3 31.1286 21.1 30.9696C24.2762 29.9045 27.0362 27.8769 28.9916 25.1722C30.9469 22.4675 31.999 19.2218 32 15.8921C32 7.11169 24.84 0 16 0Z" fill="white"/>
</svg>
