<svg width="500" height="514" viewBox="0 0 500 514" fill="none" xmlns="http://www.w3.org/2000/svg">
<g clip-path="url(#clip0)">
<path d="M58.96 179.62L123.91 217.12V292.12L58.96 329.62L-5.98999 292.12V217.12L58.96 179.62ZM58.96 404.62L123.91 442.12V517.12L58.96 554.62L-5.98999 517.12V442.12L58.96 404.62ZM188.87 -45.38L253.82 -7.88V67.12L188.87 104.62L123.91 67.12V-7.88L188.87 -45.38ZM188.87 179.62L253.82 217.12V292.12L188.87 329.62L123.91 292.12V217.12L188.87 179.62ZM318.77 -45.38L383.73 -7.88V67.12L318.77 104.62L253.82 67.12V-7.88L318.77 -45.38ZM383.73 67.12L448.68 104.62V179.62L383.73 217.12L318.77 179.62V104.62L383.73 67.12ZM383.73 292.12L448.68 329.62V404.62L383.73 442.12L318.77 404.62V329.62L383.73 292.12ZM448.68 179.62L513.64 217.12V292.12L448.68 329.62L383.73 292.12V217.12L448.68 179.62Z" stroke="#066044" stroke-width="2"/>
<path d="M51.46 179.62C51.46 181.609 52.2502 183.517 53.6567 184.923C55.0632 186.33 56.9709 187.12 58.96 187.12C60.9491 187.12 62.8568 186.33 64.2633 184.923C65.6698 183.517 66.46 181.609 66.46 179.62C66.46 177.631 65.6698 175.723 64.2633 174.317C62.8568 172.91 60.9491 172.12 58.96 172.12C56.9709 172.12 55.0632 172.91 53.6567 174.317C52.2502 175.723 51.46 177.631 51.46 179.62ZM116.41 217.12C116.41 218.105 116.604 219.08 116.981 219.99C117.358 220.9 117.91 221.727 118.607 222.423C119.303 223.12 120.13 223.672 121.04 224.049C121.95 224.426 122.925 224.62 123.91 224.62C124.895 224.62 125.87 224.426 126.78 224.049C127.69 223.672 128.517 223.12 129.213 222.423C129.91 221.727 130.462 220.9 130.839 219.99C131.216 219.08 131.41 218.105 131.41 217.12C131.41 216.135 131.216 215.16 130.839 214.25C130.462 213.34 129.91 212.513 129.213 211.817C128.517 211.12 127.69 210.568 126.78 210.191C125.87 209.814 124.895 209.62 123.91 209.62C122.925 209.62 121.95 209.814 121.04 210.191C120.13 210.568 119.303 211.12 118.607 211.817C117.91 212.513 117.358 213.34 116.981 214.25C116.604 215.16 116.41 216.135 116.41 217.12ZM116.41 292.12C116.41 293.105 116.604 294.08 116.981 294.99C117.358 295.9 117.91 296.727 118.607 297.423C119.303 298.12 120.13 298.672 121.04 299.049C121.95 299.426 122.925 299.62 123.91 299.62C124.895 299.62 125.87 299.426 126.78 299.049C127.69 298.672 128.517 298.12 129.213 297.423C129.91 296.727 130.462 295.9 130.839 294.99C131.216 294.08 131.41 293.105 131.41 292.12C131.41 291.135 131.216 290.16 130.839 289.25C130.462 288.34 129.91 287.513 129.213 286.817C128.517 286.12 127.69 285.568 126.78 285.191C125.87 284.814 124.895 284.62 123.91 284.62C122.925 284.62 121.95 284.814 121.04 285.191C120.13 285.568 119.303 286.12 118.607 286.817C117.91 287.513 117.358 288.34 116.981 289.25C116.604 290.16 116.41 291.135 116.41 292.12ZM51.46 329.62C51.46 331.609 52.2502 333.517 53.6567 334.923C55.0632 336.33 56.9709 337.12 58.96 337.12C60.9491 337.12 62.8568 336.33 64.2633 334.923C65.6698 333.517 66.46 331.609 66.46 329.62C66.46 327.631 65.6698 325.723 64.2633 324.317C62.8568 322.91 60.9491 322.12 58.96 322.12C56.9709 322.12 55.0632 322.91 53.6567 324.317C52.2502 325.723 51.46 327.631 51.46 329.62ZM-13.49 292.12C-13.49 294.109 -12.6998 296.017 -11.2933 297.423C-9.88677 298.83 -7.97911 299.62 -5.98999 299.62C-4.00087 299.62 -2.09321 298.83 -0.686689 297.423C0.719833 296.017 1.51001 294.109 1.51001 292.12C1.51001 290.131 0.719833 288.223 -0.686689 286.817C-2.09321 285.41 -4.00087 284.62 -5.98999 284.62C-7.97911 284.62 -9.88677 285.41 -11.2933 286.817C-12.6998 288.223 -13.49 290.131 -13.49 292.12ZM-13.49 217.12C-13.49 219.109 -12.6998 221.017 -11.2933 222.423C-9.88677 223.83 -7.97911 224.62 -5.98999 224.62C-4.00087 224.62 -2.09321 223.83 -0.686689 222.423C0.719833 221.017 1.51001 219.109 1.51001 217.12C1.51001 215.131 0.719833 213.223 -0.686689 211.817C-2.09321 210.41 -4.00087 209.62 -5.98999 209.62C-7.97911 209.62 -9.88677 210.41 -11.2933 211.817C-12.6998 213.223 -13.49 215.131 -13.49 217.12ZM51.46 404.62C51.46 406.609 52.2502 408.517 53.6567 409.923C55.0632 411.33 56.9709 412.12 58.96 412.12C60.9491 412.12 62.8568 411.33 64.2633 409.923C65.6698 408.517 66.46 406.609 66.46 404.62C66.46 402.631 65.6698 400.723 64.2633 399.317C62.8568 397.91 60.9491 397.12 58.96 397.12C56.9709 397.12 55.0632 397.91 53.6567 399.317C52.2502 400.723 51.46 402.631 51.46 404.62ZM116.41 442.12C116.41 443.105 116.604 444.08 116.981 444.99C117.358 445.9 117.91 446.727 118.607 447.423C119.303 448.12 120.13 448.672 121.04 449.049C121.95 449.426 122.925 449.62 123.91 449.62C124.895 449.62 125.87 449.426 126.78 449.049C127.69 448.672 128.517 448.12 129.213 447.423C129.91 446.727 130.462 445.9 130.839 444.99C131.216 444.08 131.41 443.105 131.41 442.12C131.41 441.135 131.216 440.16 130.839 439.25C130.462 438.34 129.91 437.513 129.213 436.817C128.517 436.12 127.69 435.568 126.78 435.191C125.87 434.814 124.895 434.62 123.91 434.62C122.925 434.62 121.95 434.814 121.04 435.191C120.13 435.568 119.303 436.12 118.607 436.817C117.91 437.513 117.358 438.34 116.981 439.25C116.604 440.16 116.41 441.135 116.41 442.12ZM116.41 517.12C116.41 518.105 116.604 519.08 116.981 519.99C117.358 520.9 117.91 521.727 118.607 522.423C119.303 523.12 120.13 523.672 121.04 524.049C121.95 524.426 122.925 524.62 123.91 524.62C124.895 524.62 125.87 524.426 126.78 524.049C127.69 523.672 128.517 523.12 129.213 522.423C129.91 521.727 130.462 520.9 130.839 519.99C131.216 519.08 131.41 518.105 131.41 517.12C131.41 516.135 131.216 515.16 130.839 514.25C130.462 513.34 129.91 512.513 129.213 511.817C128.517 511.12 127.69 510.568 126.78 510.191C125.87 509.814 124.895 509.62 123.91 509.62C122.925 509.62 121.95 509.814 121.04 510.191C120.13 510.568 119.303 511.12 118.607 511.817C117.91 512.513 117.358 513.34 116.981 514.25C116.604 515.16 116.41 516.135 116.41 517.12ZM51.46 554.62C51.46 556.609 52.2502 558.517 53.6567 559.923C55.0632 561.33 56.9709 562.12 58.96 562.12C60.9491 562.12 62.8568 561.33 64.2633 559.923C65.6698 558.517 66.46 556.609 66.46 554.62C66.46 552.631 65.6698 550.723 64.2633 549.317C62.8568 547.91 60.9491 547.12 58.96 547.12C56.9709 547.12 55.0632 547.91 53.6567 549.317C52.2502 550.723 51.46 552.631 51.46 554.62ZM-13.49 517.12C-13.49 519.109 -12.6998 521.017 -11.2933 522.423C-9.88677 523.83 -7.97911 524.62 -5.98999 524.62C-4.00087 524.62 -2.09321 523.83 -0.686689 522.423C0.719833 521.017 1.51001 519.109 1.51001 517.12C1.51001 515.131 0.719833 513.223 -0.686689 511.817C-2.09321 510.41 -4.00087 509.62 -5.98999 509.62C-7.97911 509.62 -9.88677 510.41 -11.2933 511.817C-12.6998 513.223 -13.49 515.131 -13.49 517.12ZM-13.49 442.12C-13.49 444.109 -12.6998 446.017 -11.2933 447.423C-9.88677 448.83 -7.97911 449.62 -5.98999 449.62C-4.00087 449.62 -2.09321 448.83 -0.686689 447.423C0.719833 446.017 1.51001 444.109 1.51001 442.12C1.51001 440.131 0.719833 438.223 -0.686689 436.817C-2.09321 435.41 -4.00087 434.62 -5.98999 434.62C-7.97911 434.62 -9.88677 435.41 -11.2933 436.817C-12.6998 438.223 -13.49 440.131 -13.49 442.12ZM181.37 -45.38C181.37 -43.3909 182.16 -41.4832 183.567 -40.0767C184.973 -38.6702 186.881 -37.88 188.87 -37.88C190.859 -37.88 192.767 -38.6702 194.173 -40.0767C195.58 -41.4832 196.37 -43.3909 196.37 -45.38C196.37 -47.3691 195.58 -49.2768 194.173 -50.6833C192.767 -52.0898 190.859 -52.88 188.87 -52.88C186.881 -52.88 184.973 -52.0898 183.567 -50.6833C182.16 -49.2768 181.37 -47.3691 181.37 -45.38ZM246.32 -7.88C246.32 -5.89088 247.11 -3.98323 248.517 -2.5767C249.923 -1.17018 251.831 -0.380005 253.82 -0.380005C255.809 -0.380005 257.717 -1.17018 259.123 -2.5767C260.53 -3.98323 261.32 -5.89088 261.32 -7.88C261.32 -9.86913 260.53 -11.7768 259.123 -13.1833C257.717 -14.5898 255.809 -15.38 253.82 -15.38C251.831 -15.38 249.923 -14.5898 248.517 -13.1833C247.11 -11.7768 246.32 -9.86913 246.32 -7.88ZM246.32 67.12C246.32 69.1091 247.11 71.0168 248.517 72.4233C249.923 73.8298 251.831 74.62 253.82 74.62C255.809 74.62 257.717 73.8298 259.123 72.4233C260.53 71.0168 261.32 69.1091 261.32 67.12C261.32 65.1309 260.53 63.2232 259.123 61.8167C257.717 60.4102 255.809 59.62 253.82 59.62C251.831 59.62 249.923 60.4102 248.517 61.8167C247.11 63.2232 246.32 65.1309 246.32 67.12ZM181.37 104.62C181.37 106.609 182.16 108.517 183.567 109.923C184.973 111.33 186.881 112.12 188.87 112.12C190.859 112.12 192.767 111.33 194.173 109.923C195.58 108.517 196.37 106.609 196.37 104.62C196.37 102.631 195.58 100.723 194.173 99.3167C192.767 97.9102 190.859 97.12 188.87 97.12C186.881 97.12 184.973 97.9102 183.567 99.3167C182.16 100.723 181.37 102.631 181.37 104.62ZM116.41 67.12C116.41 68.1049 116.604 69.0802 116.981 69.9901C117.358 70.9001 117.91 71.7269 118.607 72.4233C119.303 73.1197 120.13 73.6722 121.04 74.0491C121.95 74.426 122.925 74.62 123.91 74.62C124.895 74.62 125.87 74.426 126.78 74.0491C127.69 73.6722 128.517 73.1197 129.213 72.4233C129.91 71.7269 130.462 70.9001 130.839 69.9901C131.216 69.0802 131.41 68.1049 131.41 67.12C131.41 66.1351 131.216 65.1598 130.839 64.2499C130.462 63.3399 129.91 62.5131 129.213 61.8167C128.517 61.1203 127.69 60.5678 126.78 60.1909C125.87 59.814 124.895 59.62 123.91 59.62C122.925 59.62 121.95 59.814 121.04 60.1909C120.13 60.5678 119.303 61.1203 118.607 61.8167C117.91 62.5131 117.358 63.3399 116.981 64.2499C116.604 65.1598 116.41 66.1351 116.41 67.12ZM116.41 -7.88C116.41 -6.89509 116.604 -5.91982 116.981 -5.00988C117.358 -4.09994 117.91 -3.27314 118.607 -2.5767C119.303 -1.88026 120.13 -1.32782 121.04 -0.950909C121.95 -0.573997 122.925 -0.380005 123.91 -0.380005C124.895 -0.380005 125.87 -0.573997 126.78 -0.950909C127.69 -1.32782 128.517 -1.88026 129.213 -2.5767C129.91 -3.27314 130.462 -4.09994 130.839 -5.00988C131.216 -5.91982 131.41 -6.89509 131.41 -7.88C131.41 -8.86492 131.216 -9.84019 130.839 -10.7501C130.462 -11.6601 129.91 -12.4869 129.213 -13.1833C128.517 -13.8797 127.69 -14.4322 126.78 -14.8091C125.87 -15.186 124.895 -15.38 123.91 -15.38C122.925 -15.38 121.95 -15.186 121.04 -14.8091C120.13 -14.4322 119.303 -13.8797 118.607 -13.1833C117.91 -12.4869 117.358 -11.6601 116.981 -10.7501C116.604 -9.84019 116.41 -8.86492 116.41 -7.88ZM181.37 179.62C181.37 181.609 182.16 183.517 183.567 184.923C184.973 186.33 186.881 187.12 188.87 187.12C190.859 187.12 192.767 186.33 194.173 184.923C195.58 183.517 196.37 181.609 196.37 179.62C196.37 177.631 195.58 175.723 194.173 174.317C192.767 172.91 190.859 172.12 188.87 172.12C186.881 172.12 184.973 172.91 183.567 174.317C182.16 175.723 181.37 177.631 181.37 179.62ZM246.32 217.12C246.32 219.109 247.11 221.017 248.517 222.423C249.923 223.83 251.831 224.62 253.82 224.62C255.809 224.62 257.717 223.83 259.123 222.423C260.53 221.017 261.32 219.109 261.32 217.12C261.32 215.131 260.53 213.223 259.123 211.817C257.717 210.41 255.809 209.62 253.82 209.62C251.831 209.62 249.923 210.41 248.517 211.817C247.11 213.223 246.32 215.131 246.32 217.12ZM246.32 292.12C246.32 294.109 247.11 296.017 248.517 297.423C249.923 298.83 251.831 299.62 253.82 299.62C255.809 299.62 257.717 298.83 259.123 297.423C260.53 296.017 261.32 294.109 261.32 292.12C261.32 290.131 260.53 288.223 259.123 286.817C257.717 285.41 255.809 284.62 253.82 284.62C251.831 284.62 249.923 285.41 248.517 286.817C247.11 288.223 246.32 290.131 246.32 292.12ZM181.37 329.62C181.37 331.609 182.16 333.517 183.567 334.923C184.973 336.33 186.881 337.12 188.87 337.12C190.859 337.12 192.767 336.33 194.173 334.923C195.58 333.517 196.37 331.609 196.37 329.62C196.37 327.631 195.58 325.723 194.173 324.317C192.767 322.91 190.859 322.12 188.87 322.12C186.881 322.12 184.973 322.91 183.567 324.317C182.16 325.723 181.37 327.631 181.37 329.62ZM311.27 -45.38C311.27 -43.3909 312.06 -41.4832 313.467 -40.0767C314.873 -38.6702 316.781 -37.88 318.77 -37.88C320.759 -37.88 322.667 -38.6702 324.073 -40.0767C325.48 -41.4832 326.27 -43.3909 326.27 -45.38C326.27 -47.3691 325.48 -49.2768 324.073 -50.6833C322.667 -52.0898 320.759 -52.88 318.77 -52.88C316.781 -52.88 314.873 -52.0898 313.467 -50.6833C312.06 -49.2768 311.27 -47.3691 311.27 -45.38ZM376.23 -7.88C376.23 -5.89088 377.02 -3.98323 378.427 -2.5767C379.833 -1.17018 381.741 -0.380005 383.73 -0.380005C385.719 -0.380005 387.627 -1.17018 389.033 -2.5767C390.44 -3.98323 391.23 -5.89088 391.23 -7.88C391.23 -9.86913 390.44 -11.7768 389.033 -13.1833C387.627 -14.5898 385.719 -15.38 383.73 -15.38C381.741 -15.38 379.833 -14.5898 378.427 -13.1833C377.02 -11.7768 376.23 -9.86913 376.23 -7.88ZM376.23 67.12C376.23 69.1091 377.02 71.0168 378.427 72.4233C379.833 73.8298 381.741 74.62 383.73 74.62C385.719 74.62 387.627 73.8298 389.033 72.4233C390.44 71.0168 391.23 69.1091 391.23 67.12C391.23 65.1309 390.44 63.2232 389.033 61.8167C387.627 60.4102 385.719 59.62 383.73 59.62C381.741 59.62 379.833 60.4102 378.427 61.8167C377.02 63.2232 376.23 65.1309 376.23 67.12ZM311.27 104.62C311.27 106.609 312.06 108.517 313.467 109.923C314.873 111.33 316.781 112.12 318.77 112.12C320.759 112.12 322.667 111.33 324.073 109.923C325.48 108.517 326.27 106.609 326.27 104.62C326.27 102.631 325.48 100.723 324.073 99.3167C322.667 97.9102 320.759 97.12 318.77 97.12C316.781 97.12 314.873 97.9102 313.467 99.3167C312.06 100.723 311.27 102.631 311.27 104.62ZM441.18 104.62C441.18 106.609 441.97 108.517 443.377 109.923C444.783 111.33 446.691 112.12 448.68 112.12C450.669 112.12 452.577 111.33 453.983 109.923C455.39 108.517 456.18 106.609 456.18 104.62C456.18 102.631 455.39 100.723 453.983 99.3167C452.577 97.9102 450.669 97.12 448.68 97.12C446.691 97.12 444.783 97.9102 443.377 99.3167C441.97 100.723 441.18 102.631 441.18 104.62ZM441.18 179.62C441.18 181.609 441.97 183.517 443.377 184.923C444.783 186.33 446.691 187.12 448.68 187.12C450.669 187.12 452.577 186.33 453.983 184.923C455.39 183.517 456.18 181.609 456.18 179.62C456.18 177.631 455.39 175.723 453.983 174.317C452.577 172.91 450.669 172.12 448.68 172.12C446.691 172.12 444.783 172.91 443.377 174.317C441.97 175.723 441.18 177.631 441.18 179.62ZM376.23 217.12C376.23 219.109 377.02 221.017 378.427 222.423C379.833 223.83 381.741 224.62 383.73 224.62C385.719 224.62 387.627 223.83 389.033 222.423C390.44 221.017 391.23 219.109 391.23 217.12C391.23 215.131 390.44 213.223 389.033 211.817C387.627 210.41 385.719 209.62 383.73 209.62C381.741 209.62 379.833 210.41 378.427 211.817C377.02 213.223 376.23 215.131 376.23 217.12ZM311.27 179.62C311.27 181.609 312.06 183.517 313.467 184.923C314.873 186.33 316.781 187.12 318.77 187.12C320.759 187.12 322.667 186.33 324.073 184.923C325.48 183.517 326.27 181.609 326.27 179.62C326.27 177.631 325.48 175.723 324.073 174.317C322.667 172.91 320.759 172.12 318.77 172.12C316.781 172.12 314.873 172.91 313.467 174.317C312.06 175.723 311.27 177.631 311.27 179.62ZM376.23 292.12C376.23 294.109 377.02 296.017 378.427 297.423C379.833 298.83 381.741 299.62 383.73 299.62C385.719 299.62 387.627 298.83 389.033 297.423C390.44 296.017 391.23 294.109 391.23 292.12C391.23 290.131 390.44 288.223 389.033 286.817C387.627 285.41 385.719 284.62 383.73 284.62C381.741 284.62 379.833 285.41 378.427 286.817C377.02 288.223 376.23 290.131 376.23 292.12ZM441.18 329.62C441.18 331.609 441.97 333.517 443.377 334.923C444.783 336.33 446.691 337.12 448.68 337.12C450.669 337.12 452.577 336.33 453.983 334.923C455.39 333.517 456.18 331.609 456.18 329.62C456.18 327.631 455.39 325.723 453.983 324.317C452.577 322.91 450.669 322.12 448.68 322.12C446.691 322.12 444.783 322.91 443.377 324.317C441.97 325.723 441.18 327.631 441.18 329.62ZM441.18 404.62C441.18 406.609 441.97 408.517 443.377 409.923C444.783 411.33 446.691 412.12 448.68 412.12C450.669 412.12 452.577 411.33 453.983 409.923C455.39 408.517 456.18 406.609 456.18 404.62C456.18 402.631 455.39 400.723 453.983 399.317C452.577 397.91 450.669 397.12 448.68 397.12C446.691 397.12 444.783 397.91 443.377 399.317C441.97 400.723 441.18 402.631 441.18 404.62ZM376.23 442.12C376.23 444.109 377.02 446.017 378.427 447.423C379.833 448.83 381.741 449.62 383.73 449.62C385.719 449.62 387.627 448.83 389.033 447.423C390.44 446.017 391.23 444.109 391.23 442.12C391.23 440.131 390.44 438.223 389.033 436.817C387.627 435.41 385.719 434.62 383.73 434.62C381.741 434.62 379.833 435.41 378.427 436.817C377.02 438.223 376.23 440.131 376.23 442.12ZM311.27 404.62C311.27 406.609 312.06 408.517 313.467 409.923C314.873 411.33 316.781 412.12 318.77 412.12C320.759 412.12 322.667 411.33 324.073 409.923C325.48 408.517 326.27 406.609 326.27 404.62C326.27 402.631 325.48 400.723 324.073 399.317C322.667 397.91 320.759 397.12 318.77 397.12C316.781 397.12 314.873 397.91 313.467 399.317C312.06 400.723 311.27 402.631 311.27 404.62ZM311.27 329.62C311.27 331.609 312.06 333.517 313.467 334.923C314.873 336.33 316.781 337.12 318.77 337.12C320.759 337.12 322.667 336.33 324.073 334.923C325.48 333.517 326.27 331.609 326.27 329.62C326.27 327.631 325.48 325.723 324.073 324.317C322.667 322.91 320.759 322.12 318.77 322.12C316.781 322.12 314.873 322.91 313.467 324.317C312.06 325.723 311.27 327.631 311.27 329.62ZM506.14 217.12C506.14 219.109 506.93 221.017 508.337 222.423C509.743 223.83 511.651 224.62 513.64 224.62C515.629 224.62 517.537 223.83 518.943 222.423C520.35 221.017 521.14 219.109 521.14 217.12C521.14 215.131 520.35 213.223 518.943 211.817C517.537 210.41 515.629 209.62 513.64 209.62C511.651 209.62 509.743 210.41 508.337 211.817C506.93 213.223 506.14 215.131 506.14 217.12ZM506.14 292.12C506.14 294.109 506.93 296.017 508.337 297.423C509.743 298.83 511.651 299.62 513.64 299.62C515.629 299.62 517.537 298.83 518.943 297.423C520.35 296.017 521.14 294.109 521.14 292.12C521.14 290.131 520.35 288.223 518.943 286.817C517.537 285.41 515.629 284.62 513.64 284.62C511.651 284.62 509.743 285.41 508.337 286.817C506.93 288.223 506.14 290.131 506.14 292.12Z" fill="#066044"/>
<path d="M88.14 32.32L131.44 57.32V107.32L88.14 132.32L44.84 107.32V57.32L88.14 32.32ZM88.14 182.32L131.44 207.32V257.32L88.14 282.32L44.84 257.32V207.32L88.14 182.32ZM88.14 332.32L131.44 357.32V407.32L88.14 432.32L44.84 407.32V357.32L88.14 332.32ZM131.44 107.32L174.75 132.32V182.32L131.44 207.32L88.14 182.32V132.32L131.44 107.32ZM174.75 182.32L218.05 207.32V257.32L174.75 282.32L131.44 257.32V207.32L174.75 182.32ZM218.05 -42.68L261.35 -17.68V32.32L218.05 57.32L174.75 32.32V-17.68L218.05 -42.68ZM218.05 107.32L261.35 132.32V182.32L218.05 207.32L174.75 182.32V132.32L218.05 107.32ZM261.35 332.32L304.65 357.32V407.32L261.35 432.32L218.05 407.32V357.32L261.35 332.32ZM218.05 407.32L261.35 432.32V482.32L218.05 507.32L174.75 482.32V432.32L218.05 407.32ZM304.65 -42.68L347.96 -17.68V32.32L304.65 57.32L261.35 32.32V-17.68L304.65 -42.68ZM347.96 182.32L391.26 207.32V257.32L347.96 282.32L304.65 257.32V207.32L347.96 182.32ZM347.96 332.32L391.26 357.32V407.32L347.96 432.32L304.65 407.32V357.32L347.96 332.32ZM391.26 -42.68L434.56 -17.68V32.32L391.26 57.32L347.96 32.32V-17.68L391.26 -42.68ZM391.26 257.32L434.56 282.32V332.32L391.26 357.32L347.96 332.32V282.32L391.26 257.32ZM434.56 332.32L477.87 357.32V407.32L434.56 432.32L391.26 407.32V357.32L434.56 332.32ZM477.87 -42.68L521.17 -17.68V32.32L477.87 57.32L434.56 32.32V-17.68L477.87 -42.68ZM477.87 257.32L521.17 282.32V332.32L477.87 357.32L434.56 332.32V282.32L477.87 257.32ZM477.87 407.32L521.17 432.32V482.32L477.87 507.32L434.56 482.32V432.32L477.87 407.32Z" stroke="#066044" stroke-width="2"/>
</g>
<defs>
<clipPath id="clip0">
<rect width="500" height="514" fill="white"/>
</clipPath>
</defs>
</svg>
