<svg width="32" height="31" viewBox="0 0 32 31" fill="none" xmlns="http://www.w3.org/2000/svg">
<path d="M15.9957 10.3311C13.0578 10.3311 10.6602 12.6538 10.6602 15.5C10.6602 18.3462 13.0578 20.6689 15.9957 20.6689C18.9336 20.6689 21.3312 18.3462 21.3312 15.5C21.3312 12.6538 18.9336 10.3311 15.9957 10.3311ZM31.9982 15.5C31.9982 13.3596 32.0182 11.2385 31.8941 9.10193C31.7701 6.62025 31.1857 4.41776 29.3125 2.60304C27.4352 0.784432 25.1657 0.222178 22.604 0.101971C20.3946 -0.0182348 18.2052 0.00115338 15.9997 0.00115338C13.7902 0.00115338 11.6008 -0.0182348 9.39536 0.101971C6.83368 0.222178 4.56019 0.78831 2.68696 2.60304C0.809722 4.42164 0.22934 6.62025 0.105259 9.10193C-0.0188226 11.2424 0.00119056 13.3634 0.00119056 15.5C0.00119056 17.6366 -0.0188226 19.7615 0.105259 21.8981C0.22934 24.3797 0.813725 26.5822 2.68696 28.397C4.56419 30.2156 6.83368 30.7778 9.39536 30.898C11.6048 31.0182 13.7943 30.9988 15.9997 30.9988C18.2092 30.9988 20.3986 31.0182 22.604 30.898C25.1657 30.7778 27.4392 30.2117 29.3125 28.397C31.1897 26.5784 31.7701 24.3797 31.8941 21.8981C32.0222 19.7615 31.9982 17.6404 31.9982 15.5ZM15.9957 23.453C11.4527 23.453 7.78631 19.9011 7.78631 15.5C7.78631 11.0989 11.4527 7.547 15.9957 7.547C20.5387 7.547 24.2051 11.0989 24.2051 15.5C24.2051 19.9011 20.5387 23.453 15.9957 23.453ZM24.5413 9.07866C23.4806 9.07866 22.6241 8.24885 22.6241 7.22128C22.6241 6.19371 23.4806 5.3639 24.5413 5.3639C25.602 5.3639 26.4586 6.19371 26.4586 7.22128C26.4589 7.46528 26.4095 7.70695 26.3133 7.93243C26.217 8.15792 26.0758 8.3628 25.8977 8.53533C25.7196 8.70787 25.5082 8.84467 25.2754 8.9379C25.0426 9.03113 24.7932 9.07897 24.5413 9.07866Z" fill="white"/>
</svg>
