<svg width="53" height="61" viewBox="0 0 53 61" fill="none" xmlns="http://www.w3.org/2000/svg">
<path d="M51.4031 14.0414L28.5463 0.45611L28.5133 0.438318L28.7113 0.323942H28.2899C27.813 0.0935321 27.2873 -0.016941 26.7581 0.00210422C26.229 0.0211494 25.7125 0.169138 25.2535 0.433234L23.4788 1.45753L1.63499 14.049C1.13828 14.3352 0.725645 14.7474 0.438622 15.244C0.151599 15.7406 0.000315513 16.3042 0 16.8779V44.1197C0 45.2888 0.622006 46.3665 1.63499 46.9486L25.256 60.5643C26.2766 61.154 27.5358 61.1438 28.5488 60.5415L51.4031 46.9562C52.3932 46.369 53 45.3015 53 44.1476V16.8474C53 15.696 52.3932 14.6285 51.4031 14.0414ZM2.44994 15.4622L26.1014 1.82862C26.35 1.69283 26.6296 1.62424 26.9128 1.62958C27.1959 1.63493 27.4728 1.71404 27.7161 1.85912L50.5704 15.4444C50.7828 15.5737 50.9626 15.7503 51.0959 15.9604L39.5621 22.4544L28.1426 15.5918C27.7726 15.3692 27.3503 15.2486 26.9186 15.2424C26.487 15.2361 26.0613 15.3444 25.685 15.5562L13.3744 22.4899L1.84063 16.0875C1.98341 15.8276 2.19401 15.6115 2.44994 15.4622V15.4622ZM38.3232 36.5404L26.9087 30.2065V16.8805C27.0475 16.8843 27.183 16.9237 27.3023 16.9948L38.3232 23.6159V36.5404V36.5404ZM26.2309 31.6959L38.1429 38.3068L26.8935 45.0652L15.0932 38.4187C14.9731 38.3504 14.8725 38.2524 14.8012 38.134L26.2309 31.6959V31.6959ZM26.0684 59.1512L2.4474 45.5354C2.19895 45.3921 1.99258 45.1858 1.84907 44.9372C1.70556 44.6887 1.62997 44.4067 1.62991 44.1197V17.8387L13.0444 24.1725V37.7045C13.0444 38.589 13.5217 39.4048 14.2909 39.8395L26.5051 46.7173L26.9037 46.9409V59.3621C26.6113 59.3687 26.3227 59.2958 26.0684 59.1512V59.1512Z" fill="black"/>
</svg>
