<svg width="46" height="41" viewBox="0 0 46 41" fill="none" xmlns="http://www.w3.org/2000/svg">
<path fill-rule="evenodd" clip-rule="evenodd" d="M25.6603 1.62108C25.3775 1.12844 24.9697 0.719142 24.4781 0.434512C23.9865 0.149882 23.4285 0 22.8605 0C22.2925 0 21.7345 0.149882 21.2429 0.434512C20.7513 0.719142 20.3435 1.12844 20.0607 1.62108L0.470546 34.9532C-0.835083 37.1759 0.730528 40.0014 3.27036 40.0014H42.4478C44.9876 40.0014 46.5561 37.173 45.2476 34.9532L25.6603 1.62108ZM22.8548 11.4319C22.4937 11.4321 22.1366 11.5079 21.8066 11.6545C21.4766 11.8011 21.181 12.0152 20.9388 12.283C20.6965 12.5508 20.5131 12.8664 20.4002 13.2094C20.2874 13.5524 20.2476 13.9152 20.2835 14.2745L21.2835 24.2939C21.3171 24.6875 21.4972 25.0541 21.7881 25.3213C22.0791 25.5885 22.4597 25.7368 22.8548 25.7368C23.2498 25.7368 23.6305 25.5885 23.9214 25.3213C24.2124 25.0541 24.3925 24.6875 24.4261 24.2939L25.426 14.2745C25.462 13.9152 25.4222 13.5524 25.3094 13.2094C25.1965 12.8664 25.0131 12.5508 24.7708 12.283C24.5286 12.0152 24.2329 11.8011 23.9029 11.6545C23.5729 11.5079 23.2159 11.4321 22.8548 11.4319ZM22.8605 28.5736C22.1028 28.5736 21.3761 28.8746 20.8403 29.4104C20.3045 29.9462 20.0035 30.6728 20.0035 31.4306C20.0035 32.1883 20.3045 32.9149 20.8403 33.4507C21.3761 33.9865 22.1028 34.2875 22.8605 34.2875C23.6182 34.2875 24.3449 33.9865 24.8807 33.4507C25.4165 32.9149 25.7175 32.1883 25.7175 31.4306C25.7175 30.6728 25.4165 29.9462 24.8807 29.4104C24.3449 28.8746 23.6182 28.5736 22.8605 28.5736Z" fill="#842029"/>
</svg>
