<svg width="45" height="60" viewBox="0 0 45 60" fill="none" xmlns="http://www.w3.org/2000/svg">
<path d="M22.5 0L0 11.1934V37.5309C8.89208e-08 43.4901 2.37053 49.2052 6.5901 53.419C10.8097 57.6327 16.5326 60 22.5 60C28.4674 60 34.1903 57.6327 38.4099 53.419C42.6295 49.2052 45 43.4901 45 37.5309V11.1934L22.5 0ZM35.3063 51.1434L22.5 44.7734V48.9452L31.9425 53.6431C29.0978 55.2977 25.8671 56.1754 22.5751 56.188C19.2831 56.2005 16.0458 55.3474 13.1885 53.7145C10.3313 52.0816 7.95487 49.7263 6.29805 46.8855C4.64124 44.0447 3.76244 40.8184 3.75 37.5309V13.5002L22.5 4.17176L41.25 13.5002V20.5218L22.5 11.1934V15.3651L41.25 24.6935V31.7151L22.5 22.3867V26.5585L41.25 35.8869V37.5309C41.2509 39.2318 41.0174 40.9247 40.5562 42.5621L22.5 33.5801V37.7518L39.1781 46.0486C38.1889 47.9555 36.8792 49.6788 35.3063 51.1434Z" fill="black"/>
</svg>
