<svg width="36" height="59" viewBox="0 0 36 59" fill="none" xmlns="http://www.w3.org/2000/svg">
<path d="M35.6223 14.4447C35.3829 13.977 35.0011 13.5966 34.5315 13.3581L12.4337 0.419817C11.6217 -0.135772 10.3532 -0.135772 9.46476 0.395233L1.09109 5.27261C0.968007 5.36788 0.84942 5.46879 0.735711 5.57499C0.28819 6.05776 0.0351223 6.68798 0.0249489 7.34501L0.0496275 23.494L0.000269099 24.0225L0.153281 24.3249C0.258561 24.5383 0.426365 24.7149 0.634525 24.8313C0.836746 24.965 1.07311 25.0383 1.31577 25.0427C1.55844 25.047 1.7973 24.9822 2.00422 24.8559L10.2496 20.158C10.4233 20.0476 10.5707 19.9008 10.6814 19.7278L10.8838 19.3221V11.4136L16.4391 14.6734L25.1657 19.7794C25.3441 19.8862 25.4853 20.045 25.5704 20.2342C25.6707 20.4023 25.7235 20.5942 25.7234 20.7898V38.1261C25.7204 38.3485 25.6592 38.5663 25.5457 38.7579C25.4446 38.9349 25.3434 39.0603 25.1657 39.1365L14.7387 45.2529L10.8567 47.5269V39.5913L15.6765 36.7101L18.2654 35.1687L18.7219 34.7385L18.7738 34.6131C18.8725 34.4257 18.9249 34.2175 18.9268 34.0059V24.5805C18.9247 24.3271 18.8455 24.0803 18.6997 23.8725L18.5467 23.5702L18.1913 23.3932C17.9618 23.2924 17.7594 23.2924 17.5818 23.2924L17.1499 23.317L1.44647 32.8185C0.980244 33.0851 0.601409 33.4804 0.35565 33.9567C0.115552 34.4174 -0.00652848 34.93 0.000269099 35.4489V51.5733C0.000269099 52.2051 0.254465 52.8369 0.812216 53.4171C1.01459 53.5695 1.19228 53.6949 1.39465 53.8202L9.63998 58.5968C10.099 58.8746 10.5803 59 11.1133 59C11.6464 59 12.1548 58.8746 12.5842 58.5968L34.5043 45.7839C34.9856 45.5307 35.3928 45.1275 35.5951 44.7219C35.874 44.2671 35.9999 43.7361 35.9999 43.2051V15.937C36.0046 15.4155 35.8746 14.9016 35.6223 14.4447ZM9.0847 18.742L1.829 22.9113V7.34501C1.829 7.16801 1.90551 6.96642 2.05605 6.814L2.58912 6.51162L9.0847 10.354V18.742ZM1.80185 35.4465C1.80185 35.2179 1.85368 34.9917 1.95487 34.7631C2.05077 34.5787 2.20164 34.4284 2.38675 34.3328L17.1277 25.4115V33.7502L14.7683 35.1662L9.06002 38.5784L1.80432 42.9494V35.4465H1.80185ZM1.80185 51.5709V45.0242L9.05755 40.6779V48.5889L2.56197 52.4042L2.30778 52.2518C2.18191 52.1756 2.07826 52.1264 2.05358 52.0994C1.90304 51.9249 1.80185 51.7479 1.80185 51.5709ZM34.2008 43.2051C34.1979 43.4275 34.1367 43.6453 34.0231 43.8369C33.9343 44.0053 33.7907 44.1388 33.6159 44.2154L11.6711 57.053C11.5062 57.1634 11.312 57.2224 11.1133 57.2224C10.9146 57.2224 10.7205 57.1634 10.5556 57.053L4.36603 53.4392L15.6568 46.8188V46.7943L26.0591 40.7024C26.5209 40.4618 26.8942 40.0813 27.1252 39.6159C27.4082 39.1702 27.558 38.6535 27.5571 38.1261V20.7898C27.5571 20.2588 27.4041 19.7548 27.1499 19.3246C26.8969 18.8751 26.5291 18.5002 26.0838 18.238L17.3572 13.132L9.0847 8.27918L4.33888 5.4742L10.3779 1.93662C10.547 1.83763 10.7395 1.78543 10.9356 1.78543C11.1318 1.78543 11.3243 1.83763 11.4934 1.93662L33.6677 14.9512C33.835 15.029 33.9696 15.1631 34.0477 15.3298C34.1488 15.5163 34.2014 15.725 34.2008 15.937V43.2051Z" fill="black"/>
</svg>
