<svg width="61" height="61" viewBox="0 0 61 61" fill="none" xmlns="http://www.w3.org/2000/svg">
<path d="M30.5 0C13.6665 0 0 13.6665 0 30.5C0 47.3335 13.6665 61 30.5 61C47.3335 61 61 47.3335 61 30.5C61 13.6665 47.3335 0 30.5 0ZM30.5 1.90625C37.7971 1.90625 44.4334 4.65633 49.4837 9.15H11.5138C16.7354 4.48118 23.4955 1.90204 30.5 1.90625ZM12.2356 11.0563H48.7644L30.5 47.5876L12.2356 11.0563ZM9.15 11.5138V49.4862C4.48118 44.2646 1.90204 37.5045 1.90625 30.5C1.90625 23.2054 4.65633 16.5691 9.15 11.5188V11.5138ZM51.85 11.5138C56.5188 16.7354 59.098 23.4955 59.0938 30.5C59.0938 37.7971 56.3437 44.4334 51.85 49.4837V11.5138ZM11.0563 12.9625L29.5469 49.9438H11.0563V12.9625ZM49.9438 12.9625V49.9438H31.4531L49.9463 12.9625H49.9438ZM11.5214 51.85H49.4837C44.2627 56.5182 37.5037 59.0973 30.5 59.0938C23.4972 59.0967 16.7392 56.5177 11.5188 51.85H11.5214Z" fill="black"/>
</svg>
